<?xml version="1.0" encoding="UTF-8" standalone="no"?>
<!DOCTYPE svg PUBLIC "-//W3C//DTD SVG 1.1//EN"
 "http://www.w3.org/Graphics/SVG/1.1/DTD/svg11.dtd">
<!-- Generated by graphviz version 2.46.0 (20210118.1747)
 -->
<!-- Pages: 1 -->
<svg width="202pt" height="116pt"
 viewBox="0.00 0.00 202.39 116.00" xmlns="http://www.w3.org/2000/svg" xmlns:xlink="http://www.w3.org/1999/xlink">
<g id="graph0" class="graph" transform="scale(1 1) rotate(0) translate(4 112)">
<polygon fill="white" stroke="transparent" points="-4,4 -4,-112 198.39,-112 198.39,4 -4,4"/>
<!-- current -->
<g id="node1" class="node">
<title>current</title>
<ellipse fill="lightblue" stroke="lightblue" cx="97.2" cy="-90" rx="44.39" ry="18"/>
<text text-anchor="middle" x="97.2" y="-86.3" font-family="Times New Roman,serif" font-size="14.00">原结点</text>
</g>
<!-- leftTree -->
<g id="node2" class="node">
<title>leftTree</title>
<ellipse fill="none" stroke="black" cx="44.2" cy="-18" rx="44.39" ry="18"/>
<text text-anchor="middle" x="44.2" y="-14.3" font-family="Times New Roman,serif" font-size="14.00">左子树</text>
</g>
<!-- current&#45;&gt;leftTree -->
<g id="edge1" class="edge">
<title>current&#45;&gt;leftTree</title>
<path fill="none" stroke="black" d="M84.64,-72.41C78.1,-63.78 69.99,-53.06 62.74,-43.5"/>
<polygon fill="black" stroke="black" points="65.49,-41.33 56.67,-35.47 59.91,-45.56 65.49,-41.33"/>
</g>
<!-- rightTree -->
<g id="node3" class="node">
<title>rightTree</title>
<ellipse fill="none" stroke="black" cx="150.2" cy="-18" rx="44.39" ry="18"/>
<text text-anchor="middle" x="150.2" y="-14.3" font-family="Times New Roman,serif" font-size="14.00">右子树</text>
</g>
<!-- current&#45;&gt;rightTree -->
<g id="edge2" class="edge">
<title>current&#45;&gt;rightTree</title>
<path fill="none" stroke="black" d="M109.76,-72.41C116.29,-63.78 124.41,-53.06 131.65,-43.5"/>
<polygon fill="black" stroke="black" points="134.48,-45.56 137.73,-35.47 128.9,-41.33 134.48,-45.56"/>
</g>
</g>
</svg>
