<?xml version="1.0" encoding="UTF-8" standalone="no"?>
<!DOCTYPE svg PUBLIC "-//W3C//DTD SVG 1.1//EN"
 "http://www.w3.org/Graphics/SVG/1.1/DTD/svg11.dtd">
<!-- Generated by graphviz version 2.46.0 (20210118.1747)
 -->
<!-- Pages: 1 -->
<svg width="299pt" height="188pt"
 viewBox="0.00 0.00 298.90 188.00" xmlns="http://www.w3.org/2000/svg" xmlns:xlink="http://www.w3.org/1999/xlink">
<g id="graph0" class="graph" transform="scale(1 1) rotate(0) translate(4 184)">
<polygon fill="white" stroke="transparent" points="-4,4 -4,-184 294.9,-184 294.9,4 -4,4"/>
<!-- current -->
<g id="node1" class="node">
<title>current</title>
<ellipse fill="lightblue" stroke="lightblue" cx="144.95" cy="-162" rx="33.29" ry="18"/>
<text text-anchor="middle" x="144.95" y="-158.3" font-family="Times New Roman,serif" font-size="14.00">中间</text>
</g>
<!-- leftTree -->
<g id="node2" class="node">
<title>leftTree</title>
<ellipse fill="none" stroke="black" cx="91.95" cy="-90" rx="44.39" ry="18"/>
<text text-anchor="middle" x="91.95" y="-86.3" font-family="Times New Roman,serif" font-size="14.00">左子树</text>
</g>
<!-- current&#45;&gt;leftTree -->
<g id="edge1" class="edge">
<title>current&#45;&gt;leftTree</title>
<path fill="none" stroke="black" d="M132.92,-145.12C126.31,-136.38 117.96,-125.35 110.52,-115.54"/>
<polygon fill="black" stroke="black" points="113.12,-113.17 104.29,-107.31 107.54,-117.39 113.12,-113.17"/>
</g>
<!-- rightTree -->
<g id="node3" class="node">
<title>rightTree</title>
<ellipse fill="none" stroke="black" cx="197.95" cy="-90" rx="44.39" ry="18"/>
<text text-anchor="middle" x="197.95" y="-86.3" font-family="Times New Roman,serif" font-size="14.00">右子树</text>
</g>
<!-- current&#45;&gt;rightTree -->
<g id="edge2" class="edge">
<title>current&#45;&gt;rightTree</title>
<path fill="none" stroke="black" d="M156.97,-145.12C163.59,-136.38 171.94,-125.35 179.37,-115.54"/>
<polygon fill="black" stroke="black" points="182.35,-117.39 185.6,-107.31 176.77,-113.17 182.35,-117.39"/>
</g>
<!-- null1 -->
<g id="node4" class="node">
<title>null1</title>
<ellipse fill="none" stroke="black" stroke-dasharray="1,5" cx="27.95" cy="-18" rx="27.9" ry="18"/>
<text text-anchor="middle" x="27.95" y="-14.3" font-family="Times New Roman,serif" font-size="14.00">null1</text>
</g>
<!-- leftTree&#45;&gt;null1 -->
<g id="edge3" class="edge">
<title>leftTree&#45;&gt;null1</title>
<path fill="none" stroke="black" d="M77.1,-72.76C68.63,-63.5 57.88,-51.73 48.59,-41.58"/>
<polygon fill="black" stroke="black" points="51.17,-39.21 41.83,-34.19 46,-43.93 51.17,-39.21"/>
</g>
<!-- left -->
<g id="node5" class="node">
<title>left</title>
<ellipse fill="lightblue" stroke="lightblue" cx="100.95" cy="-18" rx="27" ry="18"/>
<text text-anchor="middle" x="100.95" y="-14.3" font-family="Times New Roman,serif" font-size="14.00">左</text>
</g>
<!-- leftTree&#45;&gt;left -->
<g id="edge4" class="edge">
<title>leftTree&#45;&gt;left</title>
<path fill="none" stroke="black" d="M94.17,-71.7C95.16,-63.98 96.36,-54.71 97.46,-46.11"/>
<polygon fill="black" stroke="black" points="100.94,-46.47 98.75,-36.1 94,-45.58 100.94,-46.47"/>
</g>
<!-- right -->
<g id="node6" class="node">
<title>right</title>
<ellipse fill="lightblue" stroke="lightblue" cx="189.95" cy="-18" rx="27" ry="18"/>
<text text-anchor="middle" x="189.95" y="-14.3" font-family="Times New Roman,serif" font-size="14.00">右</text>
</g>
<!-- rightTree&#45;&gt;right -->
<g id="edge5" class="edge">
<title>rightTree&#45;&gt;right</title>
<path fill="none" stroke="black" d="M195.97,-71.7C195.09,-63.98 194.03,-54.71 193.05,-46.11"/>
<polygon fill="black" stroke="black" points="196.52,-45.64 191.9,-36.1 189.56,-46.44 196.52,-45.64"/>
</g>
<!-- null2 -->
<g id="node7" class="node">
<title>null2</title>
<ellipse fill="none" stroke="black" stroke-dasharray="1,5" cx="262.95" cy="-18" rx="27.9" ry="18"/>
<text text-anchor="middle" x="262.95" y="-14.3" font-family="Times New Roman,serif" font-size="14.00">null2</text>
</g>
<!-- rightTree&#45;&gt;null2 -->
<g id="edge6" class="edge">
<title>rightTree&#45;&gt;null2</title>
<path fill="none" stroke="black" d="M213.02,-72.76C221.75,-63.37 232.86,-51.41 242.38,-41.15"/>
<polygon fill="black" stroke="black" points="245.04,-43.43 249.28,-33.72 239.91,-38.66 245.04,-43.43"/>
</g>
</g>
</svg>
