<?xml version="1.0" encoding="UTF-8" standalone="no"?>
<!DOCTYPE svg PUBLIC "-//W3C//DTD SVG 1.1//EN"
 "http://www.w3.org/Graphics/SVG/1.1/DTD/svg11.dtd">
<!-- Generated by graphviz version 2.46.0 (20210118.1747)
 -->
<!-- Pages: 1 -->
<svg width="368pt" height="278pt"
 viewBox="0.00 0.00 368.06 277.74" xmlns="http://www.w3.org/2000/svg" xmlns:xlink="http://www.w3.org/1999/xlink">
<g id="graph0" class="graph" transform="scale(1 1) rotate(0) translate(4 273.74)">
<polygon fill="white" stroke="transparent" points="-4,4 -4,-273.74 364.06,-273.74 364.06,4 -4,4"/>
<!-- 1 -->
<g id="node1" class="node">
<title>1</title>
<ellipse fill="none" stroke="black" cx="126.06" cy="-179.74" rx="27" ry="18"/>
<text text-anchor="middle" x="126.06" y="-176.04" font-family="Times New Roman,serif" font-size="14.00">1</text>
</g>
<!-- t1 -->
<g id="node8" class="node">
<title>t1</title>
<ellipse fill="none" stroke="black" cx="36.06" cy="-98.87" rx="36.13" ry="26.74"/>
<text text-anchor="middle" x="36.06" y="-102.67" font-family="Times New Roman,serif" font-size="14.00">30个</text>
<text text-anchor="middle" x="36.06" y="-87.67" font-family="Times New Roman,serif" font-size="14.00">结点</text>
</g>
<!-- 1&#45;&gt;t1 -->
<g id="edge2" class="edge">
<title>1&#45;&gt;t1</title>
<path fill="none" stroke="black" d="M110.39,-165C98.4,-154.5 81.51,-139.69 66.85,-126.85"/>
<polygon fill="black" stroke="black" points="68.81,-123.92 58.98,-119.96 64.2,-129.18 68.81,-123.92"/>
</g>
<!-- t2 -->
<g id="node9" class="node">
<title>t2</title>
<ellipse fill="none" stroke="black" cx="126.06" cy="-98.87" rx="36.13" ry="26.74"/>
<text text-anchor="middle" x="126.06" y="-102.67" font-family="Times New Roman,serif" font-size="14.00">30个</text>
<text text-anchor="middle" x="126.06" y="-87.67" font-family="Times New Roman,serif" font-size="14.00">结点</text>
</g>
<!-- 1&#45;&gt;t2 -->
<g id="edge3" class="edge">
<title>1&#45;&gt;t2</title>
<path fill="none" stroke="black" d="M126.06,-161.63C126.06,-154.14 126.06,-145.05 126.06,-136.17"/>
<polygon fill="black" stroke="black" points="129.56,-135.95 126.06,-125.95 122.56,-135.95 129.56,-135.95"/>
</g>
<!-- 2 -->
<g id="node2" class="node">
<title>2</title>
<ellipse fill="lightgreen" stroke="lightgreen" cx="171.06" cy="-251.74" rx="27" ry="18"/>
<text text-anchor="middle" x="171.06" y="-248.04" font-family="Times New Roman,serif" font-size="14.00">2</text>
</g>
<!-- 2&#45;&gt;1 -->
<g id="edge1" class="edge">
<title>2&#45;&gt;1</title>
<path fill="none" stroke="black" d="M160.85,-234.86C155.21,-226.09 148.09,-215 141.76,-205.16"/>
<polygon fill="black" stroke="black" points="144.58,-203.08 136.23,-196.56 138.7,-206.87 144.58,-203.08"/>
</g>
<!-- 4 -->
<g id="node4" class="node">
<title>4</title>
<ellipse fill="none" stroke="green" cx="216.06" cy="-179.74" rx="27" ry="18"/>
<text text-anchor="middle" x="216.06" y="-176.04" font-family="Times New Roman,serif" font-size="14.00">4</text>
</g>
<!-- 2&#45;&gt;4 -->
<g id="edge4" class="edge">
<title>2&#45;&gt;4</title>
<path fill="none" stroke="black" d="M181.27,-234.86C186.91,-226.09 194.04,-215 200.37,-205.16"/>
<polygon fill="black" stroke="black" points="203.43,-206.87 205.89,-196.56 197.54,-203.08 203.43,-206.87"/>
</g>
<!-- 3 -->
<g id="node3" class="node">
<title>3</title>
<ellipse fill="none" stroke="black" cx="216.06" cy="-98.87" rx="36.13" ry="26.74"/>
<text text-anchor="middle" x="216.06" y="-102.67" font-family="Times New Roman,serif" font-size="14.00">10个</text>
<text text-anchor="middle" x="216.06" y="-87.67" font-family="Times New Roman,serif" font-size="14.00">结点</text>
</g>
<!-- 4&#45;&gt;3 -->
<g id="edge5" class="edge">
<title>4&#45;&gt;3</title>
<path fill="none" stroke="black" d="M216.06,-161.63C216.06,-154.14 216.06,-145.05 216.06,-136.17"/>
<polygon fill="black" stroke="black" points="219.56,-135.95 216.06,-125.95 212.56,-135.95 219.56,-135.95"/>
</g>
<!-- 6 -->
<g id="node6" class="node">
<title>6</title>
<ellipse fill="none" stroke="green" cx="297.06" cy="-98.87" rx="27" ry="18"/>
<text text-anchor="middle" x="297.06" y="-95.17" font-family="Times New Roman,serif" font-size="14.00">6</text>
</g>
<!-- 4&#45;&gt;6 -->
<g id="edge6" class="edge">
<title>4&#45;&gt;6</title>
<path fill="none" stroke="black" d="M230.92,-164.27C243.25,-152.27 260.97,-135.01 274.97,-121.39"/>
<polygon fill="black" stroke="black" points="277.58,-123.73 282.3,-114.24 272.69,-118.71 277.58,-123.73"/>
</g>
<!-- 5 -->
<g id="node5" class="node">
<title>5</title>
<ellipse fill="none" stroke="green" cx="261.06" cy="-18" rx="27" ry="18"/>
<text text-anchor="middle" x="261.06" y="-14.3" font-family="Times New Roman,serif" font-size="14.00">5</text>
</g>
<!-- 6&#45;&gt;5 -->
<g id="edge7" class="edge">
<title>6&#45;&gt;5</title>
<path fill="none" stroke="black" d="M289.6,-81.53C284.73,-70.85 278.26,-56.68 272.71,-44.53"/>
<polygon fill="black" stroke="black" points="275.85,-42.96 268.51,-35.32 269.48,-45.87 275.85,-42.96"/>
</g>
<!-- 7 -->
<g id="node7" class="node">
<title>7</title>
<ellipse fill="none" stroke="black" cx="333.06" cy="-18" rx="27" ry="18"/>
<text text-anchor="middle" x="333.06" y="-14.3" font-family="Times New Roman,serif" font-size="14.00">7</text>
</g>
<!-- 6&#45;&gt;7 -->
<g id="edge8" class="edge">
<title>6&#45;&gt;7</title>
<path fill="none" stroke="black" d="M304.52,-81.53C309.4,-70.85 315.86,-56.68 321.41,-44.53"/>
<polygon fill="black" stroke="black" points="324.64,-45.87 325.61,-35.32 318.28,-42.96 324.64,-45.87"/>
</g>
</g>
</svg>
