<svg xmlns="http://www.w3.org/2000/svg" version="1.1" baseProfile="full" width="900" height="500" style="user-select: none; position: absolute; left: 0px; top: 0px;"><g><rect width="900" height="500" x="0" y="0" id="0" style="fill: rgba(252, 252, 252, 0);"></rect></g><g><path d="M 90.5 440 L 90.5 60" fill="none" stroke="#cccccc" stroke-width="1" paint-order="fill" stroke-opacity="1" stroke-dasharray="" stroke-linecap="round" stroke-linejoin="miter" stroke-miterlimit="10" clip-path="none"></path><path d="M 90 440.5 L 810 440.5" fill="none" stroke="#cccccc" stroke-width="1" paint-order="fill" stroke-opacity="1" stroke-dasharray="" stroke-linecap="round" stroke-linejoin="miter" stroke-miterlimit="10" clip-path="none"></path><text transform="matrix(1,2.4492937051703357e-16,-2.4492937051703357e-16,1,82,440)" fill="#999999" fill-opacity="1" stroke="none" clip-path="none" style="font: 12px &quot;Microsoft YaHei&quot;;"><tspan dominant-baseline="middle" text-anchor="end" x="0" y="0">0</tspan></text><text transform="matrix(1,2.4492937051703357e-16,-2.4492937051703357e-16,1,82,376.6666564941406)" fill="#999999" fill-opacity="1" stroke="none" clip-path="none" style="font: 12px &quot;Microsoft YaHei&quot;;"><tspan dominant-baseline="middle" text-anchor="end" x="0" y="0">500</tspan></text><text transform="matrix(1,2.4492937051703357e-16,-2.4492937051703357e-16,1,82,313.3333435058594)" fill="#999999" fill-opacity="1" stroke="none" clip-path="none" style="font: 12px &quot;Microsoft YaHei&quot;;"><tspan dominant-baseline="middle" text-anchor="end" x="0" y="0">1,000</tspan></text><text transform="matrix(1,2.4492937051703357e-16,-2.4492937051703357e-16,1,82,250)" fill="#999999" fill-opacity="1" stroke="none" clip-path="none" style="font: 12px &quot;Microsoft YaHei&quot;;"><tspan dominant-baseline="middle" text-anchor="end" x="0" y="0">1,500</tspan></text><text transform="matrix(1,2.4492937051703357e-16,-2.4492937051703357e-16,1,82,186.6666717529297)" fill="#999999" fill-opacity="1" stroke="none" clip-path="none" style="font: 12px &quot;Microsoft YaHei&quot;;"><tspan dominant-baseline="middle" text-anchor="end" x="0" y="0">2,000</tspan></text><text transform="matrix(1,2.4492937051703357e-16,-2.4492937051703357e-16,1,82,123.33334350585938)" fill="#999999" fill-opacity="1" stroke="none" clip-path="none" style="font: 12px &quot;Microsoft YaHei&quot;;"><tspan dominant-baseline="middle" text-anchor="end" x="0" y="0">2,500</tspan></text><text transform="matrix(1,2.4492937051703357e-16,-2.4492937051703357e-16,1,82,60)" fill="#999999" fill-opacity="1" stroke="none" clip-path="none" style="font: 12px &quot;Microsoft YaHei&quot;;"><tspan dominant-baseline="middle" text-anchor="end" x="0" y="0">3,000</tspan></text><text transform="matrix(1,0,0,1,150,448)" fill="#999999" fill-opacity="1" stroke="none" clip-path="none" style="font: 12px &quot;Microsoft YaHei&quot;;"><tspan dominant-baseline="middle" text-anchor="middle" x="0" y="6">红黑树</tspan></text><text transform="matrix(1,0,0,1,270,448)" fill="#999999" fill-opacity="1" stroke="none" clip-path="none" style="font: 12px &quot;Microsoft YaHei&quot;;"><tspan dominant-baseline="middle" text-anchor="middle" x="0" y="6">Treap</tspan></text><text transform="matrix(1,0,0,1,390,448)" fill="#999999" fill-opacity="1" stroke="none" clip-path="none" style="font: 12px &quot;Microsoft YaHei&quot;;"><tspan dominant-baseline="middle" text-anchor="middle" x="0" y="6">替罪羊树</tspan></text><text transform="matrix(1,0,0,1,510,448)" fill="#999999" fill-opacity="1" stroke="none" clip-path="none" style="font: 12px &quot;Microsoft YaHei&quot;;"><tspan dominant-baseline="middle" text-anchor="middle" x="0" y="6">AVL</tspan></text><text transform="matrix(1,0,0,1,630,448)" fill="#999999" fill-opacity="1" stroke="none" clip-path="none" style="font: 12px &quot;Microsoft YaHei&quot;;"><tspan dominant-baseline="middle" text-anchor="middle" x="0" y="6">Fhq Treap</tspan></text><text transform="matrix(1,0,0,1,750,448)" fill="#999999" fill-opacity="1" stroke="none" clip-path="none" style="font: 12px &quot;Microsoft YaHei&quot;;"><tspan dominant-baseline="middle" text-anchor="middle" x="0" y="6">Splay</tspan></text><path d="M 102 440 L 198 440 L 198 329.1667 L 102 329.1667 L 102 440 Z" fill="#3fb1e3" fill-opacity="undefined" stroke="none" clip-path="none"></path><text transform="matrix(1,0,0,1,0,0)" fill="#3fb1e3" fill-opacity="undefined" stroke="none" clip-path="none" style="font: 12px &quot;Microsoft YaHei&quot;;"><tspan dominant-baseline="middle" text-anchor="middle" x="150" y="318.16666666666663">875</tspan></text><path d="M 222 440 L 318 440 L 318 288.38 L 222 288.38 L 222 440 Z" fill="#3fb1e3" fill-opacity="undefined" stroke="none" clip-path="none"></path><text transform="matrix(1,0,0,1,0,0)" fill="#3fb1e3" fill-opacity="undefined" stroke="none" clip-path="none" style="font: 12px &quot;Microsoft YaHei&quot;;"><tspan dominant-baseline="middle" text-anchor="middle" x="270" y="277.38">1197</tspan></text><path d="M 342 440 L 438 440 L 438 283.44 L 342 283.44 L 342 440 Z" fill="#3fb1e3" fill-opacity="undefined" stroke="none" clip-path="none"></path><text transform="matrix(1,0,0,1,0,0)" fill="#3fb1e3" fill-opacity="undefined" stroke="none" clip-path="none" style="font: 12px &quot;Microsoft YaHei&quot;;"><tspan dominant-baseline="middle" text-anchor="middle" x="390" y="272.44">1236</tspan></text><path d="M 462 440 L 558 440 L 558 244.9333 L 462 244.9333 L 462 440 Z" fill="#3fb1e3" fill-opacity="undefined" stroke="none" clip-path="none"></path><text transform="matrix(1,0,0,1,0,0)" fill="#3fb1e3" fill-opacity="undefined" stroke="none" clip-path="none" style="font: 12px &quot;Microsoft YaHei&quot;;"><tspan dominant-baseline="middle" text-anchor="middle" x="510" y="233.93333333333334">1540</tspan></text><path d="M 582 440 L 678 440 L 678 225.68 L 582 225.68 L 582 440 Z" fill="#3fb1e3" fill-opacity="undefined" stroke="none" clip-path="none"></path><text transform="matrix(1,0,0,1,0,0)" fill="#3fb1e3" fill-opacity="undefined" stroke="none" clip-path="none" style="font: 12px &quot;Microsoft YaHei&quot;;"><tspan dominant-baseline="middle" text-anchor="middle" x="630" y="214.68">1692</tspan></text><path d="M 702 440 L 798 440 L 798 73.30000000000001 L 702 73.30000000000001 L 702 440 Z" fill="#3fb1e3" fill-opacity="undefined" stroke="none" clip-path="none"></path><text transform="matrix(1,0,0,1,0,0)" fill="#3fb1e3" fill-opacity="undefined" stroke="none" clip-path="none" style="font: 12px &quot;Microsoft YaHei&quot;;"><tspan dominant-baseline="middle" text-anchor="middle" x="750" y="62.30000000000001">2895</tspan></text><path d="M -5 -5 L 76.1211 -5 L 76.1211 19 L -5 19 L -5 -5 Z" fill="rgba(0,0,0,0)" fill-opacity="1" stroke="#ccc" stroke-width="0" paint-order="fill" stroke-opacity="1" stroke-dasharray="" stroke-linecap="butt" stroke-linejoin="miter" stroke-miterlimit="10" transform="matrix(1,0,0,1,414.439453125,5)" clip-path="none"></path><path d="M 3.5 0 L 21.5 0 A 3.5 3.5 0 0 1 25 3.5 L 25 10.5 A 3.5 3.5 0 0 1 21.5 14 L 3.5 14 A 3.5 3.5 0 0 1 0 10.5 L 0 3.5 A 3.5 3.5 0 0 1 3.5 0 Z" fill="#3fb1e3" fill-opacity="1" stroke="none" transform="matrix(1,0,0,1,414.439453125,5)" clip-path="none"></path><text transform="matrix(1,0,0,1,414.439453125,5)" fill="#999999" fill-opacity="1" stroke="none" clip-path="none" style="font: 12px &quot;Microsoft YaHei&quot;;"><tspan dominant-baseline="middle" text-anchor="start" x="30" y="7">dotcpp</tspan></text><path d="M -5 -5 L 257 -5 L 257 45 L -5 45 L -5 -5 Z" fill="rgba(0,0,0,0)" fill-opacity="1" stroke="#ccc" stroke-width="0" paint-order="fill" stroke-opacity="1" stroke-dasharray="" stroke-linecap="butt" stroke-linejoin="miter" stroke-miterlimit="10" transform="matrix(1,0,0,1,5,5)" clip-path="none"></path><text transform="matrix(1,0,0,1,5,5)" fill="#666666" fill-opacity="1" stroke="none" clip-path="none" style="font: bolder 18px &quot;Microsoft YaHei&quot;;"><tspan dominant-baseline="middle" text-anchor="start" x="0" y="9">平衡树速度比较（单位：毫秒）</tspan></text><text transform="matrix(1,0,0,1,5,5)" fill="#999999" fill-opacity="1" stroke="none" clip-path="none" style="font: 12px &quot;Microsoft YaHei&quot;;"><tspan dominant-baseline="middle" text-anchor="start" x="0" y="34">By Cat-shao</tspan></text></g></svg>