<svg xmlns="http://www.w3.org/2000/svg" version="1.1" baseProfile="full" width="900" height="500" style="user-select: none; position: absolute; left: 0px; top: 0px;"><g><rect width="900" height="500" x="0" y="0" id="0" style="fill: rgba(252, 252, 252, 0);"></rect></g><g><path d="M 90 440.5 L 810 440.5" fill="none" stroke="#eeeeee" stroke-width="1" paint-order="fill" stroke-opacity="1" stroke-dasharray="" stroke-linecap="butt" stroke-linejoin="miter" stroke-miterlimit="10" clip-path="none"></path><path d="M 90 364.5 L 810 364.5" fill="none" stroke="#eeeeee" stroke-width="1" paint-order="fill" stroke-opacity="1" stroke-dasharray="" stroke-linecap="butt" stroke-linejoin="miter" stroke-miterlimit="10" clip-path="none"></path><path d="M 90 288.5 L 810 288.5" fill="none" stroke="#eeeeee" stroke-width="1" paint-order="fill" stroke-opacity="1" stroke-dasharray="" stroke-linecap="butt" stroke-linejoin="miter" stroke-miterlimit="10" clip-path="none"></path><path d="M 90 212.5 L 810 212.5" fill="none" stroke="#eeeeee" stroke-width="1" paint-order="fill" stroke-opacity="1" stroke-dasharray="" stroke-linecap="butt" stroke-linejoin="miter" stroke-miterlimit="10" clip-path="none"></path><path d="M 90 136.5 L 810 136.5" fill="none" stroke="#eeeeee" stroke-width="1" paint-order="fill" stroke-opacity="1" stroke-dasharray="" stroke-linecap="butt" stroke-linejoin="miter" stroke-miterlimit="10" clip-path="none"></path><path d="M 90 60.5 L 810 60.5" fill="none" stroke="#eeeeee" stroke-width="1" paint-order="fill" stroke-opacity="1" stroke-dasharray="" stroke-linecap="butt" stroke-linejoin="miter" stroke-miterlimit="10" clip-path="none"></path><path d="M 126 86.752 L 198 225.68 L 270 251.824 L 342 239.056 L 414 266.112 L 486 271.888 L 558 268.848 L 630 253.952 L 702 265.504 L 774 258.816 L 774 440 L 702 440 L 630 440 L 558 440 L 486 440 L 414 440 L 342 440 L 270 440 L 198 440 L 126 440 Z" fill="#3fb1e3" fill-opacity="0" stroke="none" clip-path="url(#zr2322-clip-0)"></path><path d="M 90.5 440 L 90.5 60" fill="none" stroke="#cccccc" stroke-width="1" paint-order="fill" stroke-opacity="1" stroke-dasharray="" stroke-linecap="round" stroke-linejoin="miter" stroke-miterlimit="10" clip-path="none"></path><path d="M 90 440.5 L 810 440.5" fill="none" stroke="#cccccc" stroke-width="1" paint-order="fill" stroke-opacity="1" stroke-dasharray="" stroke-linecap="round" stroke-linejoin="miter" stroke-miterlimit="10" clip-path="none"></path><path d="M 90 440.5 L 85 440.5" fill="none" stroke="#333" stroke-width="1" paint-order="fill" stroke-opacity="1" stroke-dasharray="" stroke-linecap="butt" stroke-linejoin="miter" stroke-miterlimit="10" clip-path="none"></path><path d="M 90 364.5 L 85 364.5" fill="none" stroke="#333" stroke-width="1" paint-order="fill" stroke-opacity="1" stroke-dasharray="" stroke-linecap="butt" stroke-linejoin="miter" stroke-miterlimit="10" clip-path="none"></path><path d="M 90 288.5 L 85 288.5" fill="none" stroke="#333" stroke-width="1" paint-order="fill" stroke-opacity="1" stroke-dasharray="" stroke-linecap="butt" stroke-linejoin="miter" stroke-miterlimit="10" clip-path="none"></path><path d="M 90 212.5 L 85 212.5" fill="none" stroke="#333" stroke-width="1" paint-order="fill" stroke-opacity="1" stroke-dasharray="" stroke-linecap="butt" stroke-linejoin="miter" stroke-miterlimit="10" clip-path="none"></path><path d="M 90 136.5 L 85 136.5" fill="none" stroke="#333" stroke-width="1" paint-order="fill" stroke-opacity="1" stroke-dasharray="" stroke-linecap="butt" stroke-linejoin="miter" stroke-miterlimit="10" clip-path="none"></path><path d="M 90 60.5 L 85 60.5" fill="none" stroke="#333" stroke-width="1" paint-order="fill" stroke-opacity="1" stroke-dasharray="" stroke-linecap="butt" stroke-linejoin="miter" stroke-miterlimit="10" clip-path="none"></path><text transform="matrix(1,2.4492937051703357e-16,-2.4492937051703357e-16,1,82,440)" fill="#999999" fill-opacity="1" stroke="none" clip-path="none" style="font: 12px &quot;Microsoft YaHei&quot;;"><tspan dominant-baseline="middle" text-anchor="end" x="0" y="0">0</tspan></text><text transform="matrix(1,2.4492937051703357e-16,-2.4492937051703357e-16,1,82,364)" fill="#999999" fill-opacity="1" stroke="none" clip-path="none" style="font: 12px &quot;Microsoft YaHei&quot;;"><tspan dominant-baseline="middle" text-anchor="end" x="0" y="0">50</tspan></text><text transform="matrix(1,2.4492937051703357e-16,-2.4492937051703357e-16,1,82,288)" fill="#999999" fill-opacity="1" stroke="none" clip-path="none" style="font: 12px &quot;Microsoft YaHei&quot;;"><tspan dominant-baseline="middle" text-anchor="end" x="0" y="0">100</tspan></text><text transform="matrix(1,2.4492937051703357e-16,-2.4492937051703357e-16,1,82,212)" fill="#999999" fill-opacity="1" stroke="none" clip-path="none" style="font: 12px &quot;Microsoft YaHei&quot;;"><tspan dominant-baseline="middle" text-anchor="end" x="0" y="0">150</tspan></text><text transform="matrix(1,2.4492937051703357e-16,-2.4492937051703357e-16,1,82,136)" fill="#999999" fill-opacity="1" stroke="none" clip-path="none" style="font: 12px &quot;Microsoft YaHei&quot;;"><tspan dominant-baseline="middle" text-anchor="end" x="0" y="0">200</tspan></text><text transform="matrix(1,2.4492937051703357e-16,-2.4492937051703357e-16,1,82,60)" fill="#999999" fill-opacity="1" stroke="none" clip-path="none" style="font: 12px &quot;Microsoft YaHei&quot;;"><tspan dominant-baseline="middle" text-anchor="end" x="0" y="0">250</tspan></text><text transform="matrix(1,0,0,1,126,448)" fill="#999999" fill-opacity="1" stroke="none" clip-path="none" style="font: 12px &quot;Microsoft YaHei&quot;;"><tspan dominant-baseline="middle" text-anchor="middle" x="0" y="6">0.51</tspan></text><text transform="matrix(1,0,0,1,198,448)" fill="#999999" fill-opacity="1" stroke="none" clip-path="none" style="font: 12px &quot;Microsoft YaHei&quot;;"><tspan dominant-baseline="middle" text-anchor="middle" x="0" y="6">0.56</tspan></text><text transform="matrix(1,0,0,1,270,448)" fill="#999999" fill-opacity="1" stroke="none" clip-path="none" style="font: 12px &quot;Microsoft YaHei&quot;;"><tspan dominant-baseline="middle" text-anchor="middle" x="0" y="6">0.61</tspan></text><text transform="matrix(1,0,0,1,342,448)" fill="#999999" fill-opacity="1" stroke="none" clip-path="none" style="font: 12px &quot;Microsoft YaHei&quot;;"><tspan dominant-baseline="middle" text-anchor="middle" x="0" y="6">0.66</tspan></text><text transform="matrix(1,0,0,1,414,448)" fill="#999999" fill-opacity="1" stroke="none" clip-path="none" style="font: 12px &quot;Microsoft YaHei&quot;;"><tspan dominant-baseline="middle" text-anchor="middle" x="0" y="6">0.71</tspan></text><text transform="matrix(1,0,0,1,486,448)" fill="#999999" fill-opacity="1" stroke="none" clip-path="none" style="font: 12px &quot;Microsoft YaHei&quot;;"><tspan dominant-baseline="middle" text-anchor="middle" x="0" y="6">0.76</tspan></text><text transform="matrix(1,0,0,1,558,448)" fill="#999999" fill-opacity="1" stroke="none" clip-path="none" style="font: 12px &quot;Microsoft YaHei&quot;;"><tspan dominant-baseline="middle" text-anchor="middle" x="0" y="6">0.81</tspan></text><text transform="matrix(1,0,0,1,630,448)" fill="#999999" fill-opacity="1" stroke="none" clip-path="none" style="font: 12px &quot;Microsoft YaHei&quot;;"><tspan dominant-baseline="middle" text-anchor="middle" x="0" y="6">0.86</tspan></text><text transform="matrix(1,0,0,1,702,448)" fill="#999999" fill-opacity="1" stroke="none" clip-path="none" style="font: 12px &quot;Microsoft YaHei&quot;;"><tspan dominant-baseline="middle" text-anchor="middle" x="0" y="6">0.91</tspan></text><text transform="matrix(1,0,0,1,774,448)" fill="#999999" fill-opacity="1" stroke="none" clip-path="none" style="font: 12px &quot;Microsoft YaHei&quot;;"><tspan dominant-baseline="middle" text-anchor="middle" x="0" y="6">0.96</tspan></text><path d="M 126 86.752 L 198 225.68 L 270 251.824 L 342 239.056 L 414 266.112 L 486 271.888 L 558 268.848 L 630 253.952 L 702 265.504 L 774 258.816" fill="none" stroke="#3fb1e3" stroke-width="1" paint-order="fill" stroke-opacity="1" stroke-dasharray="" stroke-linecap="butt" stroke-linejoin="bevel" stroke-miterlimit="10" clip-path="url(#zr2322-clip-0)"></path><path d="M 1 0 A 1 1 0 1 0 1 0.0001" fill="#fff" fill-opacity="1" stroke="#3fb1e3" stroke-width="0.5" paint-order="fill" stroke-opacity="1" stroke-dasharray="" stroke-linecap="butt" stroke-linejoin="miter" stroke-miterlimit="10" transform="matrix(2,0,0,2,126,86.75199890136719)" clip-path="none"></path><text transform="matrix(1,0,0,1,0,0)" fill="#3fb1e3" fill-opacity="1" stroke="none" clip-path="none" style="font: 12px &quot;Microsoft YaHei&quot;;"><tspan dominant-baseline="middle" text-anchor="middle" x="126" y="73.25199890136719">232.4</tspan></text><path d="M 1 0 A 1 1 0 1 0 1 0.0001" fill="#fff" fill-opacity="1" stroke="#3fb1e3" stroke-width="0.5" paint-order="fill" stroke-opacity="1" stroke-dasharray="" stroke-linecap="butt" stroke-linejoin="miter" stroke-miterlimit="10" transform="matrix(2,0,0,2,198,225.67999267578125)" clip-path="none"></path><text transform="matrix(1,0,0,1,0,0)" fill="#3fb1e3" fill-opacity="1" stroke="none" clip-path="none" style="font: 12px &quot;Microsoft YaHei&quot;;"><tspan dominant-baseline="middle" text-anchor="middle" x="198" y="212.17999267578125">141</tspan></text><path d="M 1 0 A 1 1 0 1 0 1 0.0001" fill="#fff" fill-opacity="1" stroke="#3fb1e3" stroke-width="0.5" paint-order="fill" stroke-opacity="1" stroke-dasharray="" stroke-linecap="butt" stroke-linejoin="miter" stroke-miterlimit="10" transform="matrix(2,0,0,2,270,251.82400512695312)" clip-path="none"></path><text transform="matrix(1,0,0,1,0,0)" fill="#3fb1e3" fill-opacity="1" stroke="none" clip-path="none" style="font: 12px &quot;Microsoft YaHei&quot;;"><tspan dominant-baseline="middle" text-anchor="middle" x="270" y="238.32400512695312">123.8</tspan></text><path d="M 1 0 A 1 1 0 1 0 1 0.0001" fill="#fff" fill-opacity="1" stroke="#3fb1e3" stroke-width="0.5" paint-order="fill" stroke-opacity="1" stroke-dasharray="" stroke-linecap="butt" stroke-linejoin="miter" stroke-miterlimit="10" transform="matrix(2,0,0,2,342,239.05599975585938)" clip-path="none"></path><text transform="matrix(1,0,0,1,0,0)" fill="#3fb1e3" fill-opacity="1" stroke="none" clip-path="none" style="font: 12px &quot;Microsoft YaHei&quot;;"><tspan dominant-baseline="middle" text-anchor="middle" x="342" y="225.55599975585938">132.2</tspan></text><path d="M 1 0 A 1 1 0 1 0 1 0.0001" fill="#fff" fill-opacity="1" stroke="#3fb1e3" stroke-width="0.5" paint-order="fill" stroke-opacity="1" stroke-dasharray="" stroke-linecap="butt" stroke-linejoin="miter" stroke-miterlimit="10" transform="matrix(2,0,0,2,414,266.11199951171875)" clip-path="none"></path><text transform="matrix(1,0,0,1,0,0)" fill="#3fb1e3" fill-opacity="1" stroke="none" clip-path="none" style="font: 12px &quot;Microsoft YaHei&quot;;"><tspan dominant-baseline="middle" text-anchor="middle" x="414" y="252.61199951171875">114.4</tspan></text><path d="M 1 0 A 1 1 0 1 0 1 0.0001" fill="#fff" fill-opacity="1" stroke="#3fb1e3" stroke-width="0.5" paint-order="fill" stroke-opacity="1" stroke-dasharray="" stroke-linecap="butt" stroke-linejoin="miter" stroke-miterlimit="10" transform="matrix(2,0,0,2,486,271.88800048828125)" clip-path="none"></path><text transform="matrix(1,0,0,1,0,0)" fill="#3fb1e3" fill-opacity="1" stroke="none" clip-path="none" style="font: 12px &quot;Microsoft YaHei&quot;;"><tspan dominant-baseline="middle" text-anchor="middle" x="486" y="258.38800048828125">110.6</tspan></text><path d="M 1 0 A 1 1 0 1 0 1 0.0001" fill="#fff" fill-opacity="1" stroke="#3fb1e3" stroke-width="0.5" paint-order="fill" stroke-opacity="1" stroke-dasharray="" stroke-linecap="butt" stroke-linejoin="miter" stroke-miterlimit="10" transform="matrix(2,0,0,2,558,268.8479919433594)" clip-path="none"></path><text transform="matrix(1,0,0,1,0,0)" fill="#3fb1e3" fill-opacity="1" stroke="none" clip-path="none" style="font: 12px &quot;Microsoft YaHei&quot;;"><tspan dominant-baseline="middle" text-anchor="middle" x="558" y="255.34799194335938">112.6</tspan></text><path d="M 1 0 A 1 1 0 1 0 1 0.0001" fill="#fff" fill-opacity="1" stroke="#3fb1e3" stroke-width="0.5" paint-order="fill" stroke-opacity="1" stroke-dasharray="" stroke-linecap="butt" stroke-linejoin="miter" stroke-miterlimit="10" transform="matrix(2,0,0,2,630,253.95199584960938)" clip-path="none"></path><text transform="matrix(1,0,0,1,0,0)" fill="#3fb1e3" fill-opacity="1" stroke="none" clip-path="none" style="font: 12px &quot;Microsoft YaHei&quot;;"><tspan dominant-baseline="middle" text-anchor="middle" x="630" y="240.45199584960938">122.4</tspan></text><path d="M 1 0 A 1 1 0 1 0 1 0.0001" fill="#fff" fill-opacity="1" stroke="#3fb1e3" stroke-width="0.5" paint-order="fill" stroke-opacity="1" stroke-dasharray="" stroke-linecap="butt" stroke-linejoin="miter" stroke-miterlimit="10" transform="matrix(2,0,0,2,702,265.5039978027344)" clip-path="none"></path><text transform="matrix(1,0,0,1,0,0)" fill="#3fb1e3" fill-opacity="1" stroke="none" clip-path="none" style="font: 12px &quot;Microsoft YaHei&quot;;"><tspan dominant-baseline="middle" text-anchor="middle" x="702" y="252.00399780273438">114.8</tspan></text><path d="M 1 0 A 1 1 0 1 0 1 0.0001" fill="#fff" fill-opacity="1" stroke="#3fb1e3" stroke-width="0.5" paint-order="fill" stroke-opacity="1" stroke-dasharray="" stroke-linecap="butt" stroke-linejoin="miter" stroke-miterlimit="10" transform="matrix(2,0,0,2,774,258.8160095214844)" clip-path="none"></path><text transform="matrix(1,0,0,1,0,0)" fill="#3fb1e3" fill-opacity="1" stroke="none" clip-path="none" style="font: 12px &quot;Microsoft YaHei&quot;;"><tspan dominant-baseline="middle" text-anchor="middle" x="774" y="245.31600952148438">119.2</tspan></text><path d="M -5 -5 L 5 -5 L 5 5 L -5 5 L -5 -5 Z" fill="rgba(0,0,0,0)" fill-opacity="1" stroke="#ccc" stroke-width="0" paint-order="fill" stroke-opacity="1" stroke-dasharray="" stroke-linecap="butt" stroke-linejoin="miter" stroke-miterlimit="10" transform="matrix(1,0,0,1,450,5)" clip-path="none"></path><path d="M -5 -5 L 378.7285 -5 L 378.7285 45 L -5 45 L -5 -5 Z" fill="rgba(0,0,0,0)" fill-opacity="1" stroke="#ccc" stroke-width="0" paint-order="fill" stroke-opacity="1" stroke-dasharray="" stroke-linecap="butt" stroke-linejoin="miter" stroke-miterlimit="10" transform="matrix(1,0,0,1,5,5)" clip-path="none"></path><text transform="matrix(1,0,0,1,5,5)" fill="#666666" fill-opacity="1" stroke="none" clip-path="none" style="font: bolder 18px &quot;Microsoft YaHei&quot;;"><tspan dominant-baseline="middle" text-anchor="start" x="0" y="9">替罪羊树在不同alpha时的速度（单位：毫秒）</tspan></text><text transform="matrix(1,0,0,1,5,5)" fill="#999999" fill-opacity="1" stroke="none" clip-path="none" style="font: 12px &quot;Microsoft YaHei&quot;;"><tspan dominant-baseline="middle" text-anchor="start" x="0" y="34">By Cat-shao</tspan></text><defs><clipPath id="zr2322-clip-0"><path d="M 89 59.5 L 810 59.5 L 810 440.5 L 89 440.5 L 89 59.5 Z" fill="#000" fill-opacity="1" stroke="none"></path></clipPath></defs></g></svg>